<?xml version="1.0" encoding="UTF-8" standalone="no"?>
<!DOCTYPE svg PUBLIC "-//W3C//DTD SVG 1.1//EN"
 "http://www.w3.org/Graphics/SVG/1.1/DTD/svg11.dtd">
<!-- Generated by graphviz version 2.46.0 (20210119.1425)
 -->
<!-- Title: dependencies Pages: 1 -->
<svg width="1937pt" height="211pt"
 viewBox="0.00 0.00 1937.00 211.00" xmlns="http://www.w3.org/2000/svg" xmlns:xlink="http://www.w3.org/1999/xlink">
<g id="graph0" class="graph" transform="scale(1 1) rotate(0) translate(4 207)">
<title>dependencies</title>
<polygon fill="white" stroke="transparent" points="-4,4 -4,-207 1933,-207 1933,4 -4,4"/>
<text text-anchor="start" x="943.51" y="-42.4" font-family="sans-serif" font-weight="bold" font-size="14.00">Legend</text>
<polygon fill="#ffffb3" stroke="transparent" points="730.5,-10 730.5,-30 750.5,-30 750.5,-10 730.5,-10"/>
<text text-anchor="start" x="754.13" y="-15.4" font-family="sans-serif" font-size="14.00"> &#160;Declarations</text>
<polygon fill="#8dd3c7" stroke="transparent" points="843.5,-10 843.5,-30 863.5,-30 863.5,-10 843.5,-10"/>
<text text-anchor="start" x="867.23" y="-15.4" font-family="sans-serif" font-size="14.00"> &#160;Module</text>
<polygon fill="#80b1d3" stroke="transparent" points="929.5,-10 929.5,-30 949.5,-30 949.5,-10 929.5,-10"/>
<text text-anchor="start" x="953.28" y="-15.4" font-family="sans-serif" font-size="14.00"> &#160;Bootstrap</text>
<polygon fill="#fdb462" stroke="transparent" points="1026.5,-10 1026.5,-30 1046.5,-30 1046.5,-10 1026.5,-10"/>
<text text-anchor="start" x="1050.17" y="-15.4" font-family="sans-serif" font-size="14.00"> &#160;Providers</text>
<polygon fill="#fb8072" stroke="transparent" points="1122.5,-10 1122.5,-30 1142.5,-30 1142.5,-10 1122.5,-10"/>
<text text-anchor="start" x="1146.23" y="-15.4" font-family="sans-serif" font-size="14.00"> &#160;Exports</text>
<g id="clust1" class="cluster">
<title>cluster_BaseModule</title>
<polygon fill="none" stroke="black" stroke-dasharray="1,5" points="8,-70 8,-195 1921,-195 1921,-70 8,-70"/>
</g>
<g id="clust2" class="cluster">
<title>cluster_BaseModule_declarations</title>
<polygon fill="none" stroke="black" points="172,-78 172,-130 1913,-130 1913,-78 172,-78"/>
</g>
<g id="clust15" class="cluster">
<title>cluster_BaseModule_imports</title>
<polygon fill="none" stroke="black" points="16,-78 16,-130 164,-130 164,-78 16,-78"/>
</g>
<!-- CardsComponent -->
<g id="node1" class="node">
<title>CardsComponent</title>
<polygon fill="#ffffb3" stroke="black" points="1904.99,-122 1791.01,-122 1791.01,-86 1904.99,-86 1904.99,-122"/>
<text text-anchor="middle" x="1848" y="-99.8" font-family="Times,serif" font-size="14.00">CardsComponent</text>
</g>
<!-- BaseModule -->
<g id="node13" class="node">
<title>BaseModule</title>
<polygon fill="#8dd3c7" stroke="black" points="996.26,-187 993.26,-191 972.26,-191 969.26,-187 909.74,-187 909.74,-151 996.26,-151 996.26,-187"/>
<text text-anchor="middle" x="953" y="-164.8" font-family="Times,serif" font-size="14.00">BaseModule</text>
</g>
<!-- CardsComponent&#45;&gt;BaseModule -->
<g id="edge1" class="edge">
<title>CardsComponent&#45;&gt;BaseModule</title>
<path fill="none" stroke="black" d="M1848,-122.09C1848,-145.13 1848,-182 1848,-182 1848,-182 1006.47,-182 1006.47,-182"/>
<polygon fill="black" stroke="black" points="1006.47,-178.5 996.47,-182 1006.47,-185.5 1006.47,-178.5"/>
</g>
<!-- CarouselsComponent -->
<g id="node2" class="node">
<title>CarouselsComponent</title>
<polygon fill="#ffffb3" stroke="black" points="1773.04,-122 1636.96,-122 1636.96,-86 1773.04,-86 1773.04,-122"/>
<text text-anchor="middle" x="1705" y="-99.8" font-family="Times,serif" font-size="14.00">CarouselsComponent</text>
</g>
<!-- CarouselsComponent&#45;&gt;BaseModule -->
<g id="edge2" class="edge">
<title>CarouselsComponent&#45;&gt;BaseModule</title>
<path fill="none" stroke="black" d="M1705,-122.04C1705,-143.66 1705,-177 1705,-177 1705,-177 1006.41,-177 1006.41,-177"/>
<polygon fill="black" stroke="black" points="1006.41,-173.5 996.41,-177 1006.41,-180.5 1006.41,-173.5"/>
</g>
<!-- CollapsesComponent -->
<g id="node3" class="node">
<title>CollapsesComponent</title>
<polygon fill="#ffffb3" stroke="black" points="1618.77,-122 1483.23,-122 1483.23,-86 1618.77,-86 1618.77,-122"/>
<text text-anchor="middle" x="1551" y="-99.8" font-family="Times,serif" font-size="14.00">CollapsesComponent</text>
</g>
<!-- CollapsesComponent&#45;&gt;BaseModule -->
<g id="edge3" class="edge">
<title>CollapsesComponent&#45;&gt;BaseModule</title>
<path fill="none" stroke="black" d="M1551,-122.22C1551,-142.37 1551,-172 1551,-172 1551,-172 1006.49,-172 1006.49,-172"/>
<polygon fill="black" stroke="black" points="1006.49,-168.5 996.49,-172 1006.49,-175.5 1006.49,-168.5"/>
</g>
<!-- FormsComponent -->
<g id="node4" class="node">
<title>FormsComponent</title>
<polygon fill="#ffffb3" stroke="black" points="1465.61,-122 1348.39,-122 1348.39,-86 1465.61,-86 1465.61,-122"/>
<text text-anchor="middle" x="1407" y="-99.8" font-family="Times,serif" font-size="14.00">FormsComponent</text>
</g>
<!-- FormsComponent&#45;&gt;BaseModule -->
<g id="edge4" class="edge">
<title>FormsComponent&#45;&gt;BaseModule</title>
<path fill="none" stroke="black" d="M1407,-122.22C1407,-140.83 1407,-167 1407,-167 1407,-167 1006.53,-167 1006.53,-167"/>
<polygon fill="black" stroke="black" points="1006.53,-163.5 996.53,-167 1006.53,-170.5 1006.53,-163.5"/>
</g>
<!-- NavbarsComponent -->
<g id="node5" class="node">
<title>NavbarsComponent</title>
<polygon fill="#ffffb3" stroke="black" points="1329.97,-122 1202.03,-122 1202.03,-86 1329.97,-86 1329.97,-122"/>
<text text-anchor="middle" x="1266" y="-99.8" font-family="Times,serif" font-size="14.00">NavbarsComponent</text>
</g>
<!-- NavbarsComponent&#45;&gt;BaseModule -->
<g id="edge5" class="edge">
<title>NavbarsComponent&#45;&gt;BaseModule</title>
<path fill="none" stroke="black" d="M1266,-122.03C1266,-139.06 1266,-162 1266,-162 1266,-162 1006.52,-162 1006.52,-162"/>
<polygon fill="black" stroke="black" points="1006.52,-158.5 996.52,-162 1006.52,-165.5 1006.52,-158.5"/>
</g>
<!-- PaginationsComponent -->
<g id="node6" class="node">
<title>PaginationsComponent</title>
<polygon fill="#ffffb3" stroke="black" points="1184.16,-122 1037.84,-122 1037.84,-86 1184.16,-86 1184.16,-122"/>
<text text-anchor="middle" x="1111" y="-99.8" font-family="Times,serif" font-size="14.00">PaginationsComponent</text>
</g>
<!-- PaginationsComponent&#45;&gt;BaseModule -->
<g id="edge6" class="edge">
<title>PaginationsComponent&#45;&gt;BaseModule</title>
<path fill="none" stroke="black" d="M1111,-122.24C1111,-137.57 1111,-157 1111,-157 1111,-157 1006.59,-157 1006.59,-157"/>
<polygon fill="black" stroke="black" points="1006.59,-153.5 996.59,-157 1006.59,-160.5 1006.59,-153.5"/>
</g>
<!-- PopoversComponent -->
<g id="node7" class="node">
<title>PopoversComponent</title>
<polygon fill="#ffffb3" stroke="black" points="1019.94,-122 886.06,-122 886.06,-86 1019.94,-86 1019.94,-122"/>
<text text-anchor="middle" x="953" y="-99.8" font-family="Times,serif" font-size="14.00">PopoversComponent</text>
</g>
<!-- PopoversComponent&#45;&gt;BaseModule -->
<g id="edge7" class="edge">
<title>PopoversComponent&#45;&gt;BaseModule</title>
<path fill="none" stroke="black" d="M953,-122.11C953,-122.11 953,-140.99 953,-140.99"/>
<polygon fill="black" stroke="black" points="949.5,-140.99 953,-150.99 956.5,-140.99 949.5,-140.99"/>
</g>
<!-- ProgressComponent -->
<g id="node8" class="node">
<title>ProgressComponent</title>
<polygon fill="#ffffb3" stroke="black" points="868.54,-122 739.46,-122 739.46,-86 868.54,-86 868.54,-122"/>
<text text-anchor="middle" x="804" y="-99.8" font-family="Times,serif" font-size="14.00">ProgressComponent</text>
</g>
<!-- ProgressComponent&#45;&gt;BaseModule -->
<g id="edge8" class="edge">
<title>ProgressComponent&#45;&gt;BaseModule</title>
<path fill="none" stroke="black" d="M804,-122.24C804,-137.57 804,-157 804,-157 804,-157 899.5,-157 899.5,-157"/>
<polygon fill="black" stroke="black" points="899.5,-160.5 909.5,-157 899.5,-153.5 899.5,-160.5"/>
</g>
<!-- SwitchesComponent -->
<g id="node9" class="node">
<title>SwitchesComponent</title>
<polygon fill="#ffffb3" stroke="black" points="720.88,-122 589.12,-122 589.12,-86 720.88,-86 720.88,-122"/>
<text text-anchor="middle" x="655" y="-99.8" font-family="Times,serif" font-size="14.00">SwitchesComponent</text>
</g>
<!-- SwitchesComponent&#45;&gt;BaseModule -->
<g id="edge9" class="edge">
<title>SwitchesComponent&#45;&gt;BaseModule</title>
<path fill="none" stroke="black" d="M655,-122.03C655,-139.06 655,-162 655,-162 655,-162 899.67,-162 899.67,-162"/>
<polygon fill="black" stroke="black" points="899.67,-165.5 909.67,-162 899.67,-158.5 899.67,-165.5"/>
</g>
<!-- TablesComponent -->
<g id="node10" class="node">
<title>TablesComponent</title>
<polygon fill="#ffffb3" stroke="black" points="571.15,-122 452.85,-122 452.85,-86 571.15,-86 571.15,-122"/>
<text text-anchor="middle" x="512" y="-99.8" font-family="Times,serif" font-size="14.00">TablesComponent</text>
</g>
<!-- TablesComponent&#45;&gt;BaseModule -->
<g id="edge10" class="edge">
<title>TablesComponent&#45;&gt;BaseModule</title>
<path fill="none" stroke="black" d="M512,-122.22C512,-140.83 512,-167 512,-167 512,-167 899.51,-167 899.51,-167"/>
<polygon fill="black" stroke="black" points="899.51,-170.5 909.51,-167 899.51,-163.5 899.51,-170.5"/>
</g>
<!-- TabsComponent -->
<g id="node11" class="node">
<title>TabsComponent</title>
<polygon fill="#ffffb3" stroke="black" points="434.05,-122 325.95,-122 325.95,-86 434.05,-86 434.05,-122"/>
<text text-anchor="middle" x="380" y="-99.8" font-family="Times,serif" font-size="14.00">TabsComponent</text>
</g>
<!-- TabsComponent&#45;&gt;BaseModule -->
<g id="edge11" class="edge">
<title>TabsComponent&#45;&gt;BaseModule</title>
<path fill="none" stroke="black" d="M380,-122.22C380,-142.37 380,-172 380,-172 380,-172 899.46,-172 899.46,-172"/>
<polygon fill="black" stroke="black" points="899.46,-175.5 909.46,-172 899.46,-168.5 899.46,-175.5"/>
</g>
<!-- TooltipsComponent -->
<g id="node12" class="node">
<title>TooltipsComponent</title>
<polygon fill="#ffffb3" stroke="black" points="308,-122 180,-122 180,-86 308,-86 308,-122"/>
<text text-anchor="middle" x="244" y="-99.8" font-family="Times,serif" font-size="14.00">TooltipsComponent</text>
</g>
<!-- TooltipsComponent&#45;&gt;BaseModule -->
<g id="edge12" class="edge">
<title>TooltipsComponent&#45;&gt;BaseModule</title>
<path fill="none" stroke="black" d="M244,-122.04C244,-143.66 244,-177 244,-177 244,-177 899.72,-177 899.72,-177"/>
<polygon fill="black" stroke="black" points="899.72,-180.5 909.72,-177 899.72,-173.5 899.72,-180.5"/>
</g>
<!-- BaseRoutingModule -->
<g id="node14" class="node">
<title>BaseRoutingModule</title>
<polygon fill="#8dd3c7" stroke="black" points="155.88,-122 152.88,-126 131.88,-126 128.88,-122 24.12,-122 24.12,-86 155.88,-86 155.88,-122"/>
<text text-anchor="middle" x="90" y="-99.8" font-family="Times,serif" font-size="14.00">BaseRoutingModule</text>
</g>
<!-- BaseRoutingModule&#45;&gt;BaseModule -->
<g id="edge13" class="edge">
<title>BaseRoutingModule&#45;&gt;BaseModule</title>
<path fill="none" stroke="black" d="M90,-122.09C90,-145.13 90,-182 90,-182 90,-182 899.61,-182 899.61,-182"/>
<polygon fill="black" stroke="black" points="899.61,-185.5 909.61,-182 899.61,-178.5 899.61,-185.5"/>
</g>
</g>
</svg>
