<?xml version="1.0" encoding="UTF-8" standalone="no"?>
<!DOCTYPE svg PUBLIC "-//W3C//DTD SVG 1.1//EN"
 "http://www.w3.org/Graphics/SVG/1.1/DTD/svg11.dtd">
<!-- Generated by graphviz version 2.46.0 (20210119.1425)
 -->
<!-- Title: dependencies Pages: 1 -->
<svg width="1160pt" height="284pt"
 viewBox="0.00 0.00 1160.00 284.00" xmlns="http://www.w3.org/2000/svg" xmlns:xlink="http://www.w3.org/1999/xlink">
<g id="graph0" class="graph" transform="scale(1 1) rotate(0) translate(4 280)">
<title>dependencies</title>
<polygon fill="white" stroke="transparent" points="-4,4 -4,-280 1156,-280 1156,4 -4,4"/>
<text text-anchor="start" x="555.01" y="-42.4" font-family="sans-serif" font-weight="bold" font-size="14.00">Legend</text>
<polygon fill="#ffffb3" stroke="transparent" points="342,-10 342,-30 362,-30 362,-10 342,-10"/>
<text text-anchor="start" x="365.63" y="-15.4" font-family="sans-serif" font-size="14.00"> &#160;Declarations</text>
<polygon fill="#8dd3c7" stroke="transparent" points="455,-10 455,-30 475,-30 475,-10 455,-10"/>
<text text-anchor="start" x="478.73" y="-15.4" font-family="sans-serif" font-size="14.00"> &#160;Module</text>
<polygon fill="#80b1d3" stroke="transparent" points="541,-10 541,-30 561,-30 561,-10 541,-10"/>
<text text-anchor="start" x="564.78" y="-15.4" font-family="sans-serif" font-size="14.00"> &#160;Bootstrap</text>
<polygon fill="#fdb462" stroke="transparent" points="638,-10 638,-30 658,-30 658,-10 638,-10"/>
<text text-anchor="start" x="661.67" y="-15.4" font-family="sans-serif" font-size="14.00"> &#160;Providers</text>
<polygon fill="#fb8072" stroke="transparent" points="734,-10 734,-30 754,-30 754,-10 734,-10"/>
<text text-anchor="start" x="757.73" y="-15.4" font-family="sans-serif" font-size="14.00"> &#160;Exports</text>
<g id="clust1" class="cluster">
<title>cluster_AppModule</title>
<polygon fill="none" stroke="black" stroke-dasharray="1,5" points="8,-70 8,-268 1144,-268 1144,-70 8,-70"/>
</g>
<g id="clust8" class="cluster">
<title>cluster_AppModule_imports</title>
<polygon fill="none" stroke="black" points="715,-78 715,-130 1136,-130 1136,-78 715,-78"/>
</g>
<g id="clust10" class="cluster">
<title>cluster_AppModule_bootstrap</title>
<polygon fill="none" stroke="black" points="508,-208 508,-260 632,-260 632,-208 508,-208"/>
</g>
<g id="clust2" class="cluster">
<title>cluster_AppModule_declarations</title>
<polygon fill="none" stroke="black" points="16,-78 16,-130 707,-130 707,-78 16,-78"/>
</g>
<!-- AppComponent -->
<g id="node1" class="node">
<title>AppComponent</title>
<polygon fill="#ffffb3" stroke="black" points="698.94,-122 593.06,-122 593.06,-86 698.94,-86 698.94,-122"/>
<text text-anchor="middle" x="646" y="-99.8" font-family="Times,serif" font-size="14.00">AppComponent</text>
</g>
<!-- AppModule -->
<g id="node6" class="node">
<title>AppModule</title>
<polygon fill="#8dd3c7" stroke="black" points="611.66,-187 608.66,-191 587.66,-191 584.66,-187 528.34,-187 528.34,-151 611.66,-151 611.66,-187"/>
<text text-anchor="middle" x="570" y="-164.8" font-family="Times,serif" font-size="14.00">AppModule</text>
</g>
<!-- AppComponent&#45;&gt;AppModule -->
<g id="edge1" class="edge">
<title>AppComponent&#45;&gt;AppModule</title>
<path fill="none" stroke="black" d="M602.55,-122.11C602.55,-122.11 602.55,-140.99 602.55,-140.99"/>
<polygon fill="black" stroke="black" points="599.05,-140.99 602.55,-150.99 606.05,-140.99 599.05,-140.99"/>
</g>
<!-- DefaultLayoutComponent -->
<g id="node2" class="node">
<title>DefaultLayoutComponent</title>
<polygon fill="#ffffb3" stroke="black" points="575.47,-122 412.53,-122 412.53,-86 575.47,-86 575.47,-122"/>
<text text-anchor="middle" x="494" y="-99.8" font-family="Times,serif" font-size="14.00">DefaultLayoutComponent</text>
</g>
<!-- DefaultLayoutComponent&#45;&gt;AppModule -->
<g id="edge2" class="edge">
<title>DefaultLayoutComponent&#45;&gt;AppModule</title>
<path fill="none" stroke="black" d="M551.83,-122.11C551.83,-122.11 551.83,-140.99 551.83,-140.99"/>
<polygon fill="black" stroke="black" points="548.33,-140.99 551.83,-150.99 555.33,-140.99 548.33,-140.99"/>
</g>
<!-- LoginComponent -->
<g id="node3" class="node">
<title>LoginComponent</title>
<polygon fill="#ffffb3" stroke="black" points="394.28,-122 279.72,-122 279.72,-86 394.28,-86 394.28,-122"/>
<text text-anchor="middle" x="337" y="-99.8" font-family="Times,serif" font-size="14.00">LoginComponent</text>
</g>
<!-- LoginComponent&#45;&gt;AppModule -->
<g id="edge3" class="edge">
<title>LoginComponent&#45;&gt;AppModule</title>
<path fill="none" stroke="black" d="M337,-122.03C337,-138.4 337,-160 337,-160 337,-160 518.08,-160 518.08,-160"/>
<polygon fill="black" stroke="black" points="518.08,-163.5 528.08,-160 518.08,-156.5 518.08,-163.5"/>
</g>
<!-- P404Component -->
<g id="node4" class="node">
<title>P404Component</title>
<polygon fill="#ffffb3" stroke="black" points="262.12,-122 151.88,-122 151.88,-86 262.12,-86 262.12,-122"/>
<text text-anchor="middle" x="207" y="-99.8" font-family="Times,serif" font-size="14.00">P404Component</text>
</g>
<!-- P404Component&#45;&gt;AppModule -->
<g id="edge4" class="edge">
<title>P404Component&#45;&gt;AppModule</title>
<path fill="none" stroke="black" d="M207,-122.11C207,-141.34 207,-169 207,-169 207,-169 518,-169 518,-169"/>
<polygon fill="black" stroke="black" points="518,-172.5 528,-169 518,-165.5 518,-172.5"/>
</g>
<!-- P500Component -->
<g id="node5" class="node">
<title>P500Component</title>
<polygon fill="#ffffb3" stroke="black" points="134.12,-122 23.88,-122 23.88,-86 134.12,-86 134.12,-122"/>
<text text-anchor="middle" x="79" y="-99.8" font-family="Times,serif" font-size="14.00">P500Component</text>
</g>
<!-- P500Component&#45;&gt;AppModule -->
<g id="edge5" class="edge">
<title>P500Component&#45;&gt;AppModule</title>
<path fill="none" stroke="black" d="M79,-122.29C79,-144.21 79,-178 79,-178 79,-178 518.14,-178 518.14,-178"/>
<polygon fill="black" stroke="black" points="518.14,-181.5 528.14,-178 518.14,-174.5 518.14,-181.5"/>
</g>
<!-- AppComponent  -->
<g id="node10" class="node">
<title>AppComponent </title>
<polygon fill="#80b1d3" stroke="black" points="624.44,-252 515.56,-252 515.56,-216 624.44,-216 624.44,-252"/>
<text text-anchor="middle" x="570" y="-229.8" font-family="Times,serif" font-size="14.00">AppComponent </text>
</g>
<!-- AppModule&#45;&gt;AppComponent  -->
<g id="edge9" class="edge">
<title>AppModule&#45;&gt;AppComponent </title>
<path fill="none" stroke="black" stroke-dasharray="1,5" d="M570,-187.11C570,-187.11 570,-205.99 570,-205.99"/>
<polygon fill="black" stroke="black" points="566.5,-205.99 570,-215.99 573.5,-205.99 566.5,-205.99"/>
</g>
<!-- AppRoutingModule -->
<g id="node7" class="node">
<title>AppRoutingModule</title>
<polygon fill="#8dd3c7" stroke="black" points="1128.27,-122 1125.27,-126 1104.27,-126 1101.27,-122 999.73,-122 999.73,-86 1128.27,-86 1128.27,-122"/>
<text text-anchor="middle" x="1064" y="-99.8" font-family="Times,serif" font-size="14.00">AppRoutingModule</text>
</g>
<!-- AppRoutingModule&#45;&gt;AppModule -->
<g id="edge6" class="edge">
<title>AppRoutingModule&#45;&gt;AppModule</title>
<path fill="none" stroke="black" d="M1064,-122.29C1064,-144.21 1064,-178 1064,-178 1064,-178 621.69,-178 621.69,-178"/>
<polygon fill="black" stroke="black" points="621.69,-174.5 611.69,-178 621.69,-181.5 621.69,-174.5"/>
</g>
<!-- BaseTableModule -->
<g id="node8" class="node">
<title>BaseTableModule</title>
<polygon fill="#8dd3c7" stroke="black" points="981.13,-122 978.13,-126 957.13,-126 954.13,-122 862.87,-122 862.87,-86 981.13,-86 981.13,-122"/>
<text text-anchor="middle" x="922" y="-99.8" font-family="Times,serif" font-size="14.00">BaseTableModule</text>
</g>
<!-- BaseTableModule&#45;&gt;AppModule -->
<g id="edge7" class="edge">
<title>BaseTableModule&#45;&gt;AppModule</title>
<path fill="none" stroke="black" d="M922,-122.11C922,-141.34 922,-169 922,-169 922,-169 621.76,-169 621.76,-169"/>
<polygon fill="black" stroke="black" points="621.76,-165.5 611.76,-169 621.76,-172.5 621.76,-165.5"/>
</g>
<!-- DateRangeModule -->
<g id="node9" class="node">
<title>DateRangeModule</title>
<polygon fill="#8dd3c7" stroke="black" points="844.74,-122 841.74,-126 820.74,-126 817.74,-122 723.26,-122 723.26,-86 844.74,-86 844.74,-122"/>
<text text-anchor="middle" x="784" y="-99.8" font-family="Times,serif" font-size="14.00">DateRangeModule</text>
</g>
<!-- DateRangeModule&#45;&gt;AppModule -->
<g id="edge8" class="edge">
<title>DateRangeModule&#45;&gt;AppModule</title>
<path fill="none" stroke="black" d="M784,-122.03C784,-138.4 784,-160 784,-160 784,-160 621.77,-160 621.77,-160"/>
<polygon fill="black" stroke="black" points="621.77,-156.5 611.77,-160 621.77,-163.5 621.77,-156.5"/>
</g>
</g>
</svg>
