<?xml version="1.0" encoding="UTF-8" standalone="no"?>
<!DOCTYPE svg PUBLIC "-//W3C//DTD SVG 1.1//EN"
 "http://www.w3.org/Graphics/SVG/1.1/DTD/svg11.dtd">
<!-- Generated by graphviz version 2.46.0 (20210119.1425)
 -->
<!-- Title: dependencies Pages: 1 -->
<svg width="2008pt" height="284pt"
 viewBox="0.00 0.00 2008.00 284.00" xmlns="http://www.w3.org/2000/svg" xmlns:xlink="http://www.w3.org/1999/xlink">
<g id="graph0" class="graph" transform="scale(1 1) rotate(0) translate(4 280)">
<title>dependencies</title>
<polygon fill="white" stroke="transparent" points="-4,4 -4,-280 2004,-280 2004,4 -4,4"/>
<text text-anchor="start" x="979.01" y="-42.4" font-family="sans-serif" font-weight="bold" font-size="14.00">Legend</text>
<polygon fill="#ffffb3" stroke="transparent" points="766,-10 766,-30 786,-30 786,-10 766,-10"/>
<text text-anchor="start" x="789.63" y="-15.4" font-family="sans-serif" font-size="14.00"> &#160;Declarations</text>
<polygon fill="#8dd3c7" stroke="transparent" points="879,-10 879,-30 899,-30 899,-10 879,-10"/>
<text text-anchor="start" x="902.73" y="-15.4" font-family="sans-serif" font-size="14.00"> &#160;Module</text>
<polygon fill="#80b1d3" stroke="transparent" points="965,-10 965,-30 985,-30 985,-10 965,-10"/>
<text text-anchor="start" x="988.78" y="-15.4" font-family="sans-serif" font-size="14.00"> &#160;Bootstrap</text>
<polygon fill="#fdb462" stroke="transparent" points="1062,-10 1062,-30 1082,-30 1082,-10 1062,-10"/>
<text text-anchor="start" x="1085.67" y="-15.4" font-family="sans-serif" font-size="14.00"> &#160;Providers</text>
<polygon fill="#fb8072" stroke="transparent" points="1158,-10 1158,-30 1178,-30 1178,-10 1158,-10"/>
<text text-anchor="start" x="1181.73" y="-15.4" font-family="sans-serif" font-size="14.00"> &#160;Exports</text>
<g id="clust1" class="cluster">
<title>cluster_BaseTableModule</title>
<polygon fill="none" stroke="black" stroke-dasharray="1,5" points="8,-70 8,-268 1992,-268 1992,-70 8,-70"/>
</g>
<g id="clust13" class="cluster">
<title>cluster_BaseTableModule_imports</title>
<polygon fill="none" stroke="black" points="1544,-78 1544,-130 1984,-130 1984,-78 1544,-78"/>
</g>
<g id="clust2" class="cluster">
<title>cluster_BaseTableModule_declarations</title>
<polygon fill="none" stroke="black" points="16,-78 16,-130 1536,-130 1536,-78 16,-78"/>
</g>
<g id="clust14" class="cluster">
<title>cluster_BaseTableModule_exports</title>
<polygon fill="none" stroke="black" points="328,-208 328,-260 1699,-260 1699,-208 328,-208"/>
</g>
<!-- CategoryTableComponent -->
<g id="node1" class="node">
<title>CategoryTableComponent</title>
<polygon fill="#ffffb3" stroke="black" points="1528.02,-122 1363.98,-122 1363.98,-86 1528.02,-86 1528.02,-122"/>
<text text-anchor="middle" x="1446" y="-99.8" font-family="Times,serif" font-size="14.00">CategoryTableComponent</text>
</g>
<!-- BaseTableModule -->
<g id="node11" class="node">
<title>BaseTableModule</title>
<polygon fill="#8dd3c7" stroke="black" points="1031.13,-187 1028.13,-191 1007.13,-191 1004.13,-187 912.87,-187 912.87,-151 1031.13,-151 1031.13,-187"/>
<text text-anchor="middle" x="972" y="-164.8" font-family="Times,serif" font-size="14.00">BaseTableModule</text>
</g>
<!-- CategoryTableComponent&#45;&gt;BaseTableModule -->
<g id="edge1" class="edge">
<title>CategoryTableComponent&#45;&gt;BaseTableModule</title>
<path fill="none" stroke="black" d="M1371.55,-122.04C1371.55,-138.73 1371.55,-161 1371.55,-161 1371.55,-161 1041.39,-161 1041.39,-161"/>
<polygon fill="black" stroke="black" points="1041.39,-157.5 1031.39,-161 1041.39,-164.5 1041.39,-157.5"/>
</g>
<!-- LogoutComponent -->
<g id="node2" class="node">
<title>LogoutComponent</title>
<polygon fill="#ffffb3" stroke="black" points="1345.78,-122 1224.22,-122 1224.22,-86 1345.78,-86 1345.78,-122"/>
<text text-anchor="middle" x="1285" y="-99.8" font-family="Times,serif" font-size="14.00">LogoutComponent</text>
</g>
<!-- LogoutComponent&#45;&gt;BaseTableModule -->
<g id="edge2" class="edge">
<title>LogoutComponent&#45;&gt;BaseTableModule</title>
<path fill="none" stroke="black" d="M1285,-122.28C1285,-137.95 1285,-158 1285,-158 1285,-158 1041.24,-158 1041.24,-158"/>
<polygon fill="black" stroke="black" points="1041.24,-154.5 1031.24,-158 1041.24,-161.5 1041.24,-154.5"/>
</g>
<!-- OrderTableComponent -->
<g id="node3" class="node">
<title>OrderTableComponent</title>
<polygon fill="#ffffb3" stroke="black" points="1205.85,-122 1060.15,-122 1060.15,-86 1205.85,-86 1205.85,-122"/>
<text text-anchor="middle" x="1133" y="-99.8" font-family="Times,serif" font-size="14.00">OrderTableComponent</text>
</g>
<!-- OrderTableComponent&#45;&gt;BaseTableModule -->
<g id="edge3" class="edge">
<title>OrderTableComponent&#45;&gt;BaseTableModule</title>
<path fill="none" stroke="black" d="M1127.33,-122.12C1127.33,-136.78 1127.33,-155 1127.33,-155 1127.33,-155 1041.16,-155 1041.16,-155"/>
<polygon fill="black" stroke="black" points="1041.16,-151.5 1031.16,-155 1041.16,-158.5 1041.16,-151.5"/>
</g>
<!-- ProdTableComponent -->
<g id="node4" class="node">
<title>ProdTableComponent</title>
<polygon fill="#ffffb3" stroke="black" points="1041.65,-122 902.35,-122 902.35,-86 1041.65,-86 1041.65,-122"/>
<text text-anchor="middle" x="972" y="-99.8" font-family="Times,serif" font-size="14.00">ProdTableComponent</text>
</g>
<!-- ProdTableComponent&#45;&gt;BaseTableModule -->
<g id="edge4" class="edge">
<title>ProdTableComponent&#45;&gt;BaseTableModule</title>
<path fill="none" stroke="black" d="M972,-122.11C972,-122.11 972,-140.99 972,-140.99"/>
<polygon fill="black" stroke="black" points="968.5,-140.99 972,-150.99 975.5,-140.99 968.5,-140.99"/>
</g>
<!-- ProfileComponent -->
<g id="node5" class="node">
<title>ProfileComponent</title>
<polygon fill="#ffffb3" stroke="black" points="883.93,-122 764.07,-122 764.07,-86 883.93,-86 883.93,-122"/>
<text text-anchor="middle" x="824" y="-99.8" font-family="Times,serif" font-size="14.00">ProfileComponent</text>
</g>
<!-- ProfileComponent&#45;&gt;BaseTableModule -->
<g id="edge5" class="edge">
<title>ProfileComponent&#45;&gt;BaseTableModule</title>
<path fill="none" stroke="black" d="M824,-122.12C824,-136.78 824,-155 824,-155 824,-155 902.66,-155 902.66,-155"/>
<polygon fill="black" stroke="black" points="902.66,-158.5 912.66,-155 902.66,-151.5 902.66,-158.5"/>
</g>
<!-- RegisterComponent -->
<g id="node6" class="node">
<title>RegisterComponent</title>
<polygon fill="#ffffb3" stroke="black" points="745.98,-122 618.02,-122 618.02,-86 745.98,-86 745.98,-122"/>
<text text-anchor="middle" x="682" y="-99.8" font-family="Times,serif" font-size="14.00">RegisterComponent</text>
</g>
<!-- RegisterComponent&#45;&gt;BaseTableModule -->
<g id="edge6" class="edge">
<title>RegisterComponent&#45;&gt;BaseTableModule</title>
<path fill="none" stroke="black" d="M661.51,-122.28C661.51,-137.95 661.51,-158 661.51,-158 661.51,-158 902.5,-158 902.5,-158"/>
<polygon fill="black" stroke="black" points="902.5,-161.5 912.5,-158 902.5,-154.5 902.5,-161.5"/>
</g>
<!-- ReportComponent -->
<g id="node7" class="node">
<title>ReportComponent</title>
<polygon fill="#ffffb3" stroke="black" points="599.94,-122 480.06,-122 480.06,-86 599.94,-86 599.94,-122"/>
<text text-anchor="middle" x="540" y="-99.8" font-family="Times,serif" font-size="14.00">ReportComponent</text>
</g>
<!-- ReportComponent&#45;&gt;BaseTableModule -->
<g id="edge7" class="edge">
<title>ReportComponent&#45;&gt;BaseTableModule</title>
<path fill="none" stroke="black" d="M530.37,-122.04C530.37,-138.73 530.37,-161 530.37,-161 530.37,-161 902.44,-161 902.44,-161"/>
<polygon fill="black" stroke="black" points="902.44,-164.5 912.44,-161 902.44,-157.5 902.44,-164.5"/>
</g>
<!-- RevpashTableComponent -->
<g id="node8" class="node">
<title>RevpashTableComponent</title>
<polygon fill="#ffffb3" stroke="black" points="462.92,-122 301.08,-122 301.08,-86 462.92,-86 462.92,-122"/>
<text text-anchor="middle" x="382" y="-99.8" font-family="Times,serif" font-size="14.00">RevpashTableComponent</text>
</g>
<!-- RevpashTableComponent&#45;&gt;BaseTableModule -->
<g id="edge8" class="edge">
<title>RevpashTableComponent&#45;&gt;BaseTableModule</title>
<path fill="none" stroke="black" d="M399.46,-122.3C399.46,-140.27 399.46,-165 399.46,-165 399.46,-165 902.62,-165 902.62,-165"/>
<polygon fill="black" stroke="black" points="902.62,-168.5 912.62,-165 902.62,-161.5 902.62,-168.5"/>
</g>
<!-- StatComponent -->
<g id="node9" class="node">
<title>StatComponent</title>
<polygon fill="#ffffb3" stroke="black" points="283.61,-122 180.39,-122 180.39,-86 283.61,-86 283.61,-122"/>
<text text-anchor="middle" x="232" y="-99.8" font-family="Times,serif" font-size="14.00">StatComponent</text>
</g>
<!-- StatComponent&#45;&gt;BaseTableModule -->
<g id="edge9" class="edge">
<title>StatComponent&#45;&gt;BaseTableModule</title>
<path fill="none" stroke="black" d="M232,-122.17C232,-141.09 232,-168 232,-168 232,-168 902.69,-168 902.69,-168"/>
<polygon fill="black" stroke="black" points="902.69,-171.5 912.69,-168 902.69,-164.5 902.69,-171.5"/>
</g>
<!-- StructuresComponent -->
<g id="node10" class="node">
<title>StructuresComponent</title>
<polygon fill="#ffffb3" stroke="black" points="162.09,-122 23.91,-122 23.91,-86 162.09,-86 162.09,-122"/>
<text text-anchor="middle" x="93" y="-99.8" font-family="Times,serif" font-size="14.00">StructuresComponent</text>
</g>
<!-- StructuresComponent&#45;&gt;BaseTableModule -->
<g id="edge10" class="edge">
<title>StructuresComponent&#45;&gt;BaseTableModule</title>
<path fill="none" stroke="black" d="M93,-122.31C93,-142.15 93,-171 93,-171 93,-171 902.62,-171 902.62,-171"/>
<polygon fill="black" stroke="black" points="902.62,-174.5 912.62,-171 902.62,-167.5 902.62,-174.5"/>
</g>
<!-- CategoryTableComponent  -->
<g id="node15" class="node">
<title>CategoryTableComponent </title>
<polygon fill="#fb8072" stroke="black" points="1691.02,-252 1522.98,-252 1522.98,-216 1691.02,-216 1691.02,-252"/>
<text text-anchor="middle" x="1607" y="-229.8" font-family="Times,serif" font-size="14.00">CategoryTableComponent </text>
</g>
<!-- BaseTableModule&#45;&gt;CategoryTableComponent  -->
<g id="edge14" class="edge">
<title>BaseTableModule&#45;&gt;CategoryTableComponent </title>
<path fill="none" stroke="black" stroke-dasharray="5,2" d="M1031.2,-174C1176.73,-174 1540.19,-174 1540.19,-174 1540.19,-174 1540.19,-206 1540.19,-206"/>
<polygon fill="black" stroke="black" points="1536.7,-206 1540.19,-216 1543.7,-206 1536.7,-206"/>
</g>
<!-- LogoutComponent  -->
<g id="node16" class="node">
<title>LogoutComponent </title>
<polygon fill="#fb8072" stroke="black" points="1504.78,-252 1379.22,-252 1379.22,-216 1504.78,-216 1504.78,-252"/>
<text text-anchor="middle" x="1442" y="-229.8" font-family="Times,serif" font-size="14.00">LogoutComponent </text>
</g>
<!-- BaseTableModule&#45;&gt;LogoutComponent  -->
<g id="edge15" class="edge">
<title>BaseTableModule&#45;&gt;LogoutComponent </title>
<path fill="none" stroke="black" stroke-dasharray="5,2" d="M1031.53,-178C1158,-178 1442,-178 1442,-178 1442,-178 1442,-205.97 1442,-205.97"/>
<polygon fill="black" stroke="black" points="1438.5,-205.97 1442,-215.97 1445.5,-205.97 1438.5,-205.97"/>
</g>
<!-- OrderTableComponent  -->
<g id="node17" class="node">
<title>OrderTableComponent </title>
<polygon fill="#fb8072" stroke="black" points="1361.85,-252 1212.15,-252 1212.15,-216 1361.85,-216 1361.85,-252"/>
<text text-anchor="middle" x="1287" y="-229.8" font-family="Times,serif" font-size="14.00">OrderTableComponent </text>
</g>
<!-- BaseTableModule&#45;&gt;OrderTableComponent  -->
<g id="edge16" class="edge">
<title>BaseTableModule&#45;&gt;OrderTableComponent </title>
<path fill="none" stroke="black" stroke-dasharray="5,2" d="M1031.29,-181C1104.15,-181 1218.22,-181 1218.22,-181 1218.22,-181 1218.22,-205.76 1218.22,-205.76"/>
<polygon fill="black" stroke="black" points="1214.72,-205.76 1218.22,-215.76 1221.72,-205.76 1214.72,-205.76"/>
</g>
<!-- ProdTableComponent  -->
<g id="node18" class="node">
<title>ProdTableComponent </title>
<polygon fill="#fb8072" stroke="black" points="1194.65,-252 1051.35,-252 1051.35,-216 1194.65,-216 1194.65,-252"/>
<text text-anchor="middle" x="1123" y="-229.8" font-family="Times,serif" font-size="14.00">ProdTableComponent </text>
</g>
<!-- BaseTableModule&#45;&gt;ProdTableComponent  -->
<g id="edge17" class="edge">
<title>BaseTableModule&#45;&gt;ProdTableComponent </title>
<path fill="none" stroke="black" stroke-dasharray="5,2" d="M1031.53,-184C1045.17,-184 1055.75,-184 1055.75,-184 1055.75,-184 1055.75,-205.95 1055.75,-205.95"/>
<polygon fill="black" stroke="black" points="1052.25,-205.95 1055.75,-215.95 1059.25,-205.95 1052.25,-205.95"/>
</g>
<!-- ProfileComponent  -->
<g id="node19" class="node">
<title>ProfileComponent </title>
<polygon fill="#fb8072" stroke="black" points="1033.43,-252 910.57,-252 910.57,-216 1033.43,-216 1033.43,-252"/>
<text text-anchor="middle" x="972" y="-229.8" font-family="Times,serif" font-size="14.00">ProfileComponent </text>
</g>
<!-- BaseTableModule&#45;&gt;ProfileComponent  -->
<g id="edge18" class="edge">
<title>BaseTableModule&#45;&gt;ProfileComponent </title>
<path fill="none" stroke="black" stroke-dasharray="5,2" d="M972,-187.11C972,-187.11 972,-205.99 972,-205.99"/>
<polygon fill="black" stroke="black" points="968.5,-205.99 972,-215.99 975.5,-205.99 968.5,-205.99"/>
</g>
<!-- RegisterComponent  -->
<g id="node20" class="node">
<title>RegisterComponent </title>
<polygon fill="#fb8072" stroke="black" points="892.99,-252 761.01,-252 761.01,-216 892.99,-216 892.99,-252"/>
<text text-anchor="middle" x="827" y="-229.8" font-family="Times,serif" font-size="14.00">RegisterComponent </text>
</g>
<!-- BaseTableModule&#45;&gt;RegisterComponent  -->
<g id="edge19" class="edge">
<title>BaseTableModule&#45;&gt;RegisterComponent </title>
<path fill="none" stroke="black" stroke-dasharray="5,2" d="M912.46,-184C898.81,-184 888.23,-184 888.23,-184 888.23,-184 888.23,-205.95 888.23,-205.95"/>
<polygon fill="black" stroke="black" points="884.73,-205.95 888.23,-215.95 891.73,-205.95 884.73,-205.95"/>
</g>
<!-- ReportComponent  -->
<g id="node21" class="node">
<title>ReportComponent </title>
<polygon fill="#fb8072" stroke="black" points="743.43,-252 620.57,-252 620.57,-216 743.43,-216 743.43,-252"/>
<text text-anchor="middle" x="682" y="-229.8" font-family="Times,serif" font-size="14.00">ReportComponent </text>
</g>
<!-- BaseTableModule&#45;&gt;ReportComponent  -->
<g id="edge20" class="edge">
<title>BaseTableModule&#45;&gt;ReportComponent </title>
<path fill="none" stroke="black" stroke-dasharray="5,2" d="M912.85,-181C833.52,-181 702.49,-181 702.49,-181 702.49,-181 702.49,-205.76 702.49,-205.76"/>
<polygon fill="black" stroke="black" points="698.99,-205.76 702.49,-215.76 705.99,-205.76 698.99,-205.76"/>
</g>
<!-- StatComponent  -->
<g id="node22" class="node">
<title>StatComponent </title>
<polygon fill="#fb8072" stroke="black" points="602.11,-252 495.89,-252 495.89,-216 602.11,-216 602.11,-252"/>
<text text-anchor="middle" x="549" y="-229.8" font-family="Times,serif" font-size="14.00">StatComponent </text>
</g>
<!-- BaseTableModule&#45;&gt;StatComponent  -->
<g id="edge21" class="edge">
<title>BaseTableModule&#45;&gt;StatComponent </title>
<path fill="none" stroke="black" stroke-dasharray="5,2" d="M912.82,-178C799.96,-178 565.04,-178 565.04,-178 565.04,-178 565.04,-205.97 565.04,-205.97"/>
<polygon fill="black" stroke="black" points="561.54,-205.97 565.04,-215.97 568.54,-205.97 561.54,-205.97"/>
</g>
<!-- StructuresComponent  -->
<g id="node23" class="node">
<title>StructuresComponent </title>
<polygon fill="#fb8072" stroke="black" points="477.59,-252 336.41,-252 336.41,-216 477.59,-216 477.59,-252"/>
<text text-anchor="middle" x="407" y="-229.8" font-family="Times,serif" font-size="14.00">StructuresComponent </text>
</g>
<!-- BaseTableModule&#45;&gt;StructuresComponent  -->
<g id="edge22" class="edge">
<title>BaseTableModule&#45;&gt;StructuresComponent </title>
<path fill="none" stroke="black" stroke-dasharray="5,2" d="M912.47,-174C779.56,-174 470.25,-174 470.25,-174 470.25,-174 470.25,-206 470.25,-206"/>
<polygon fill="black" stroke="black" points="466.75,-206 470.25,-216 473.75,-206 466.75,-206"/>
</g>
<!-- BaseRoutingModule -->
<g id="node12" class="node">
<title>BaseRoutingModule</title>
<polygon fill="#8dd3c7" stroke="black" points="1975.88,-122 1972.88,-126 1951.88,-126 1948.88,-122 1844.12,-122 1844.12,-86 1975.88,-86 1975.88,-122"/>
<text text-anchor="middle" x="1910" y="-99.8" font-family="Times,serif" font-size="14.00">BaseRoutingModule</text>
</g>
<!-- BaseRoutingModule&#45;&gt;BaseTableModule -->
<g id="edge11" class="edge">
<title>BaseRoutingModule&#45;&gt;BaseTableModule</title>
<path fill="none" stroke="black" d="M1910,-122.31C1910,-142.15 1910,-171 1910,-171 1910,-171 1041.39,-171 1041.39,-171"/>
<polygon fill="black" stroke="black" points="1041.39,-167.5 1031.39,-171 1041.39,-174.5 1041.39,-167.5"/>
</g>
<!-- ButtonGroupModule -->
<g id="node13" class="node">
<title>ButtonGroupModule</title>
<polygon fill="#8dd3c7" stroke="black" points="1825.94,-122 1822.94,-126 1801.94,-126 1798.94,-122 1692.06,-122 1692.06,-86 1825.94,-86 1825.94,-122"/>
<text text-anchor="middle" x="1759" y="-99.8" font-family="Times,serif" font-size="14.00">ButtonGroupModule</text>
</g>
<!-- ButtonGroupModule&#45;&gt;BaseTableModule -->
<g id="edge12" class="edge">
<title>ButtonGroupModule&#45;&gt;BaseTableModule</title>
<path fill="none" stroke="black" d="M1759,-122.17C1759,-141.09 1759,-168 1759,-168 1759,-168 1041.15,-168 1041.15,-168"/>
<polygon fill="black" stroke="black" points="1041.15,-164.5 1031.15,-168 1041.15,-171.5 1041.15,-164.5"/>
</g>
<!-- DateRangeModule -->
<g id="node14" class="node">
<title>DateRangeModule</title>
<polygon fill="#8dd3c7" stroke="black" points="1673.74,-122 1670.74,-126 1649.74,-126 1646.74,-122 1552.26,-122 1552.26,-86 1673.74,-86 1673.74,-122"/>
<text text-anchor="middle" x="1613" y="-99.8" font-family="Times,serif" font-size="14.00">DateRangeModule</text>
</g>
<!-- DateRangeModule&#45;&gt;BaseTableModule -->
<g id="edge13" class="edge">
<title>DateRangeModule&#45;&gt;BaseTableModule</title>
<path fill="none" stroke="black" d="M1613,-122.3C1613,-140.27 1613,-165 1613,-165 1613,-165 1041.15,-165 1041.15,-165"/>
<polygon fill="black" stroke="black" points="1041.15,-161.5 1031.15,-165 1041.15,-168.5 1041.15,-161.5"/>
</g>
</g>
</svg>
