<?xml version="1.0" encoding="UTF-8" standalone="no"?>
<!DOCTYPE svg PUBLIC "-//W3C//DTD SVG 1.1//EN"
 "http://www.w3.org/Graphics/SVG/1.1/DTD/svg11.dtd">
<!-- Generated by graphviz version 2.46.0 (20210119.1425)
 -->
<!-- Title: dependencies Pages: 1 -->
<svg width="873pt" height="211pt"
 viewBox="0.00 0.00 873.00 211.00" xmlns="http://www.w3.org/2000/svg" xmlns:xlink="http://www.w3.org/1999/xlink">
<g id="graph0" class="graph" transform="scale(1 1) rotate(0) translate(4 207)">
<title>dependencies</title>
<polygon fill="white" stroke="transparent" points="-4,4 -4,-207 869,-207 869,4 -4,4"/>
<text text-anchor="start" x="411.51" y="-42.4" font-family="sans-serif" font-weight="bold" font-size="14.00">Legend</text>
<polygon fill="#ffffb3" stroke="transparent" points="198.5,-10 198.5,-30 218.5,-30 218.5,-10 198.5,-10"/>
<text text-anchor="start" x="222.13" y="-15.4" font-family="sans-serif" font-size="14.00"> &#160;Declarations</text>
<polygon fill="#8dd3c7" stroke="transparent" points="311.5,-10 311.5,-30 331.5,-30 331.5,-10 311.5,-10"/>
<text text-anchor="start" x="335.23" y="-15.4" font-family="sans-serif" font-size="14.00"> &#160;Module</text>
<polygon fill="#80b1d3" stroke="transparent" points="397.5,-10 397.5,-30 417.5,-30 417.5,-10 397.5,-10"/>
<text text-anchor="start" x="421.28" y="-15.4" font-family="sans-serif" font-size="14.00"> &#160;Bootstrap</text>
<polygon fill="#fdb462" stroke="transparent" points="494.5,-10 494.5,-30 514.5,-30 514.5,-10 494.5,-10"/>
<text text-anchor="start" x="518.17" y="-15.4" font-family="sans-serif" font-size="14.00"> &#160;Providers</text>
<polygon fill="#fb8072" stroke="transparent" points="590.5,-10 590.5,-30 610.5,-30 610.5,-10 590.5,-10"/>
<text text-anchor="start" x="614.23" y="-15.4" font-family="sans-serif" font-size="14.00"> &#160;Exports</text>
<g id="clust1" class="cluster">
<title>cluster_IconsModule</title>
<polygon fill="none" stroke="black" stroke-dasharray="1,5" points="8,-70 8,-195 857,-195 857,-70 8,-70"/>
</g>
<g id="clust7" class="cluster">
<title>cluster_IconsModule_imports</title>
<polygon fill="none" stroke="black" points="699,-78 699,-130 849,-130 849,-78 699,-78"/>
</g>
<g id="clust2" class="cluster">
<title>cluster_IconsModule_declarations</title>
<polygon fill="none" stroke="black" points="16,-78 16,-130 691,-130 691,-78 16,-78"/>
</g>
<!-- CoreUIIconsComponent -->
<g id="node1" class="node">
<title>CoreUIIconsComponent</title>
<polygon fill="#ffffb3" stroke="black" points="682.63,-122 529.37,-122 529.37,-86 682.63,-86 682.63,-122"/>
<text text-anchor="middle" x="606" y="-99.8" font-family="Times,serif" font-size="14.00">CoreUIIconsComponent</text>
</g>
<!-- IconsModule -->
<g id="node5" class="node">
<title>IconsModule</title>
<polygon fill="#8dd3c7" stroke="black" points="499.87,-187 496.87,-191 475.87,-191 472.87,-187 410.13,-187 410.13,-151 499.87,-151 499.87,-187"/>
<text text-anchor="middle" x="455" y="-164.8" font-family="Times,serif" font-size="14.00">IconsModule</text>
</g>
<!-- CoreUIIconsComponent&#45;&gt;IconsModule -->
<g id="edge1" class="edge">
<title>CoreUIIconsComponent&#45;&gt;IconsModule</title>
<path fill="none" stroke="black" d="M606,-122.02C606,-139.37 606,-163 606,-163 606,-163 509.9,-163 509.9,-163"/>
<polygon fill="black" stroke="black" points="509.9,-159.5 499.9,-163 509.9,-166.5 509.9,-159.5"/>
</g>
<!-- FlagsComponent -->
<g id="node2" class="node">
<title>FlagsComponent</title>
<polygon fill="#ffffb3" stroke="black" points="510.67,-122 399.33,-122 399.33,-86 510.67,-86 510.67,-122"/>
<text text-anchor="middle" x="455" y="-99.8" font-family="Times,serif" font-size="14.00">FlagsComponent</text>
</g>
<!-- FlagsComponent&#45;&gt;IconsModule -->
<g id="edge2" class="edge">
<title>FlagsComponent&#45;&gt;IconsModule</title>
<path fill="none" stroke="black" d="M455,-122.11C455,-122.11 455,-140.99 455,-140.99"/>
<polygon fill="black" stroke="black" points="451.5,-140.99 455,-150.99 458.5,-140.99 451.5,-140.99"/>
</g>
<!-- FontAwesomeComponent -->
<g id="node3" class="node">
<title>FontAwesomeComponent</title>
<polygon fill="#ffffb3" stroke="black" points="381.48,-122 218.52,-122 218.52,-86 381.48,-86 381.48,-122"/>
<text text-anchor="middle" x="300" y="-99.8" font-family="Times,serif" font-size="14.00">FontAwesomeComponent</text>
</g>
<!-- FontAwesomeComponent&#45;&gt;IconsModule -->
<g id="edge3" class="edge">
<title>FontAwesomeComponent&#45;&gt;IconsModule</title>
<path fill="none" stroke="black" d="M300,-122.02C300,-139.37 300,-163 300,-163 300,-163 399.75,-163 399.75,-163"/>
<polygon fill="black" stroke="black" points="399.75,-166.5 409.75,-163 399.75,-159.5 399.75,-166.5"/>
</g>
<!-- SimpleLineIconsComponent -->
<g id="node4" class="node">
<title>SimpleLineIconsComponent</title>
<polygon fill="#ffffb3" stroke="black" points="200.48,-122 23.52,-122 23.52,-86 200.48,-86 200.48,-122"/>
<text text-anchor="middle" x="112" y="-99.8" font-family="Times,serif" font-size="14.00">SimpleLineIconsComponent</text>
</g>
<!-- SimpleLineIconsComponent&#45;&gt;IconsModule -->
<g id="edge4" class="edge">
<title>SimpleLineIconsComponent&#45;&gt;IconsModule</title>
<path fill="none" stroke="black" d="M112,-122.28C112,-143.32 112,-175 112,-175 112,-175 399.81,-175 399.81,-175"/>
<polygon fill="black" stroke="black" points="399.81,-178.5 409.81,-175 399.81,-171.5 399.81,-178.5"/>
</g>
<!-- IconsRoutingModule -->
<g id="node6" class="node">
<title>IconsRoutingModule</title>
<polygon fill="#8dd3c7" stroke="black" points="841.49,-122 838.49,-126 817.49,-126 814.49,-122 706.51,-122 706.51,-86 841.49,-86 841.49,-122"/>
<text text-anchor="middle" x="774" y="-99.8" font-family="Times,serif" font-size="14.00">IconsRoutingModule</text>
</g>
<!-- IconsRoutingModule&#45;&gt;IconsModule -->
<g id="edge5" class="edge">
<title>IconsRoutingModule&#45;&gt;IconsModule</title>
<path fill="none" stroke="black" d="M774,-122.28C774,-143.32 774,-175 774,-175 774,-175 510.03,-175 510.03,-175"/>
<polygon fill="black" stroke="black" points="510.03,-171.5 500.03,-175 510.03,-178.5 510.03,-171.5"/>
</g>
</g>
</svg>
